<?xml version="1.0" encoding="UTF-8"?>
<svg id="Layer_1" data-name="Layer 1" xmlns="http://www.w3.org/2000/svg" viewBox="0 0 210.96 177.94">
  <defs>
    <style>
      .cls-1 {
        fill: #fff;
        stroke-width: 0px;
      }
    </style>
  </defs>
  <path class="cls-1" d="M96.28,50.45c7.67-3.88,15.37-4.67,23.29-.51,1.2-1.42,2.13-2.76,3.3-3.85,3.01-2.85,6.09-5.64,9.22-8.36,3.22-2.81,6.53-5.52,9.82-8.25,5.05-4.2,10.73-6.71,17.44-6.54,2.56.06,4.34.97,5.79,3.25,3.1,4.89,6.63,9.49,8.39,15.16.39,1.26,1.74,2.59,2.98,3.15,3.93,1.76,5.44,4.8,5.64,8.86.43,8.77-.64,17.37-2.74,25.87-.63,2.54-1.2,5.11-2.1,7.56-.65,1.78-1.64,3.49-2.77,5.02-1.47,1.98-3.55,2.8-6.11,2.97-6.49.43-12.33-1.58-17.79-4.66-5.87-3.32-11.51-7.06-17.55-10.81,7.12,12.76,12.48,26.14,18.64,39.14,6.18,13.04,11.7,26.32,17.48,39.3-.85.65-1.08.97-1.28.95-10.47-.98-20.72-2.85-30.15-7.85-.73-.39-1.36-.98-2.11-1.3-2.56-1.1-3.55-3.26-4.24-5.76-1.58-5.72-3.39-11.38-4.86-17.12-1.71-6.67-3.52-13.33-3.6-20.31-.03-2.33-.57-4.64-.81-6.97-.3-2.87-.55-5.75-.8-8.63-.52-6.09-1.63-11.99-4.85-17.22-5.89.42-11.52.58-17.43-.14-2.16,2.07-2.55,5.23-3.35,8.07-1.08,3.83-1.55,7.8-2.02,11.79-.86,7.24-.43,14.59-2.24,21.77-2.59,10.3-4.67,20.73-8.41,30.7-.45,1.19-1.42,2.4-2.47,3.1-5.45,3.6-11.39,6.19-17.8,7.48-4.84.98-9.74,1.71-14.62,2.52-.37.06-.79-.14-1.17-.21-.96-1.24-.45-2.35.07-3.52,5.31-11.72,10.57-23.48,15.92-35.18,5.16-11.3,10.38-22.58,15.66-33.83,1.29-2.74,2.92-5.32,4.05-8.35-2.37,1.62-4.76,3.21-7.11,4.86-7.4,5.19-15.12,9.68-24.09,11.66-8.03,1.77-12.2-1.78-14.08-8.01-1.74-5.78-3.12-11.7-4.16-17.64-.76-4.33-.84-8.79-.94-13.2-.05-2.17.25-4.47.96-6.51.76-2.19,2.08-4.32,4.66-4.91,1.98-.45,3.05-1.55,3.61-3.52,1.64-5.81,5.13-10.65,8.53-15.5,2.1-3,5.43-3.21,8.64-2.67,6.44,1.08,11.87,4.31,16.75,8.53,3.97,3.43,7.98,6.81,11.88,10.32,2.16,1.95,4.13,4.11,6.16,6.2.94.98,1.81,2.02,2.79,3.13Z"/>
</svg>