<?xml version="1.0" encoding="utf-8"?>
<!-- Generator: Adobe Illustrator 28.1.0, SVG Export Plug-In . SVG Version: 6.00 Build 0)  -->
<svg version="1.1" id="Layer_1" xmlns="http://www.w3.org/2000/svg" xmlns:xlink="http://www.w3.org/1999/xlink" x="0px" y="0px"
	 viewBox="0 0 39.4 39.7" style="enable-background:new 0 0 39.4 39.7;" xml:space="preserve">
<style type="text/css">
	.st0{fill:#FFE1D0;}
</style>
<g id="SVGRepo_bgCarrier">
</g>
<g id="SVGRepo_tracerCarrier">
</g>
<g id="SVGRepo_iconCarrier">
	<g>
		<path class="st0" d="M38.9,8.8c0,0.1,0,0.1,0,0.2v8.4c0,0.2-0.1,0.4-0.3,0.5l-7,4.1v8c0,0.2-0.1,0.4-0.3,0.5L16.6,39
			c0,0-0.1,0-0.1,0c0,0,0,0,0,0c-0.1,0-0.2,0-0.3,0c0,0,0,0,0,0c0,0-0.1,0-0.1,0L1.3,30.5C1.1,30.4,1,30.2,1,30V4.8
			c0-0.1,0-0.1,0-0.2c0,0,0,0,0-0.1c0,0,0-0.1,0-0.1c0,0,0,0,0-0.1c0,0,0,0,0.1-0.1c0,0,0,0,0.1,0c0,0,0,0,0.1-0.1h0l7.3-4.2
			C8.8,0,9,0,9.2,0.1l7.3,4.2h0c0,0,0,0,0.1,0.1c0,0,0,0,0.1,0c0,0,0,0,0.1,0.1c0,0,0,0,0,0.1c0,0,0,0.1,0,0.1c0,0,0,0,0,0.1
			c0,0.1,0,0.1,0,0.2v15.7L23,17V9c0-0.1,0-0.1,0-0.2c0,0,0,0,0-0.1c0,0,0-0.1,0-0.1c0,0,0,0,0-0.1c0,0,0,0,0.1-0.1c0,0,0,0,0.1,0
			c0,0,0,0,0.1-0.1h0l7.3-4.2c0.2-0.1,0.4-0.1,0.6,0l7.3,4.2c0,0,0,0,0.1,0.1c0,0,0,0,0.1,0c0,0,0,0,0.1,0.1c0,0,0,0,0,0.1
			C38.8,8.7,38.9,8.8,38.9,8.8C38.9,8.8,38.9,8.8,38.9,8.8z M37.7,17v-7l-2.6,1.5l-3.6,2v7L37.7,17L37.7,17z M30.3,29.6v-7l-3.5,2
			l-10,5.7v7L30.3,29.6z M2.2,5.9v23.7l13.5,7.8v-7l-7-4l0,0l0,0c0,0,0,0-0.1-0.1c0,0,0,0-0.1,0l0,0c0,0,0,0-0.1-0.1c0,0,0,0,0-0.1
			l0,0c0,0,0-0.1,0-0.1c0,0,0,0,0-0.1v0c0,0,0-0.1,0-0.1c0,0,0,0,0-0.1v0V9.4l-3.5-2L2.2,5.9L2.2,5.9z M8.9,1.3L2.8,4.8l6.1,3.5
			L15,4.8L8.9,1.3L8.9,1.3z M12.1,23.3l3.5-2V5.9l-2.6,1.5l-3.6,2v15.4L12.1,23.3z M31,5.5L24.8,9l6.1,3.5L37.1,9L31,5.5z
			 M30.3,13.6l-3.6-2l-2.6-1.5v7l3.5,2l2.6,1.5V13.6z M16.3,29.3l9-5.1l4.5-2.6l-6.1-3.5l-7,4.1l-6.4,3.7L16.3,29.3z"/>
	</g>
</g>
</svg>
